#!OML:ASF H:\Not Pregnant\Project 1\Capture day 1\Session 1\non-pregnant.ASF
:FULLY-SPECIFIED
:DEGREES
259
root -6.48305 16.1427 8.50501 -171.459 -2.65615 -177.855
lowerback -5.13107 0.777743 3.33356
upperback -8.14356 0.177783 0.330788
thorax -5.56361 -0.446144 -1.48449
lowerneck 24.9483 -4.72946 -30.5449
upperneck -6.83268 -17.9486 40.4461
head 0.849365 -12.7532 21.6441
rclavicle 1.19271e-015 8.74653e-015
rhumerus -44.1113 -18.0248 -72.4814
rradius 21.292
rwrist 30.9391
rhand -4.31811 -1.76078
rfingers 7.12502
rthumb 21.4485 -30.5934
lclavicle 1.19271e-015 8.74653e-015
lhumerus -42.2608 1.45389 87.4
lradius 29.7347
lwrist 32.5462
lhand -14.0489 -11.2273
lfingers 7.12502
lthumb 12.0819 18.4039
rfemur -37.7612 -2.91594 30.1073
rtibia 32.2769
rfoot -5.68042 17.4264
rtoes 0.140094
lfemur 6.93614 -2.48644 -20.7752
ltibia 27.3006
lfoot 29.0155 -18.0468
ltoes 6.59387
260
root -6.49123 16.153 8.34625 -171.572 -2.62014 -177.571
lowerback -4.94635 0.826053 3.6317
upperback -8.16613 0.250345 0.420845
thorax -5.6891 -0.426762 -1.55666
lowerneck 24.9014 -4.75116 -30.5355
upperneck -6.73281 -18.0059 40.4246
head 0.903298 -12.78 21.6079
rclavicle -6.67792e-015 9.59136e-015
rhumerus -43.8877 -17.5662 -72.8662
rradius 21.4245
rwrist 30.5978
rhand -4.13846 -1.74729
rfingers 7.12502
rthumb 21.621 -30.5602
lclavicle -6.67792e-015 9.59136e-015
lhumerus -42.5784 1.73849 87.2863
lradius 29.4125
lwrist 32.4602
lhand -14.0354 -10.708
lfingers 7.12502
lthumb 12.095 18.9224
rfemur -37.1346 -2.81364 30.3568
rtibia 32.5667
rfoot -6.19983 17.446
rtoes 1.20157
lfemur 5.71553 -2.2179 -20.1836
ltibia 29.511
lfoot 31.9654 -17.4544
ltoes 7.48989
261
root -6.49833 16.1658 8.19041 -171.703 -2.63987 -177.315
lowerback -4.71622 0.854409 3.8906
upperback -8.17403 0.304254 0.498762
thorax -5.82571 -0.413108 -1.62006
lowerneck 24.8556 -4.78628 -30.508
upperneck -6.66527 -18.0735 40.4221
head 0.953727 -12.8148 21.5776
rclavicle 2.90723e-015 5.06901e-015
rhumerus -43.6419 -17.0281 -73.3235
rradius 21.6094
rwrist 30.17
rhand -4.04178 -1.69022
rfingers 7.12502
rthumb 21.7138 -30.4924
lclavicle 2.90723e-015 5.06901e-015
lhumerus -42.8556 1.88838 87.224
lradius 29.1301
lwrist 32.4489
lhand -13.9367 -10.154
lfingers 7.12502
lthumb 12.1901 19.4708
rfemur -36.4496 -2.85789 30.6123
rtibia 32.7655
rfoot -6.72475 17.5128
rtoes 2.08529
lfemur 4.42186 -1.98606 -19.6164
ltibia 31.7603
lfoot 34.4093 -17.4322
ltoes 7.10551
262
root -6.50413 16.1815 8.03733 -171.851 -2.72634 -177.066
lowerback -4.4472 0.858797 4.1289
upperback -8.17639 0.332272 0.576404
thorax -5.98027 -0.410583 -1.67242
lowerneck 24.8381 -4.81801 -30.4799
upperneck -6.62691 -18.1413 40.4374
head 0.993981 -12.8542 21.5631
rclavicle -3.52843e-015 4.52235e-015
rhumerus -43.3929 -16.4279 -73.8167
rradius 21.8232
rwrist 29.7204
rhand -4.06233 -1.556
rfingers 7.12502
rthumb 21.6941 -30.3605
lclavicle -3.52843e-015 4.52235e-015
lhumerus -43.1228 1.9072 87.2201
lradius 28.8931
lwrist 32.4877
lhand -13.7285 -9.62109
lfingers 7.12502
lthumb 12.3909 19.9917
rfemur -35.705 -3.03132 30.8854
rtibia 32.871
rfoot -7.25171 17.6096
rtoes 2.77469
lfemur 3.04557 -1.80565 -19.0521
ltibia 34.0708
lfoot 36.1696 -17.9186
ltoes 6.36548
263
root -6.50914 16.1974 7.88715 -172.016 -2.86955 -176.822
lowerback -4.15726 0.847638 4.3601
upperback -8.15541 0.346507 0.64747
thorax -6.12299 -0.412268 -1.72806
lowerneck 24.8189 -4.8669 -30.4358
upperneck -6.62219 -18.2227 40.4708
head 1.03252 -12.9024 21.5528
rclavicle 5.26158e-015 -2.08724e-015
rhumerus -43.115 -15.8126 -74.3365
rradius 22.0597
rwrist 29.2711
rhand -4.1928 -1.37247
rfingers 7.12502
rthumb 21.5688 -30.1914
lclavicle 5.26158e-015 -2.08724e-015
lhumerus -43.3362 1.77855 87.2814
lradius 28.6909
lwrist 32.5421
lhand -13.4303 -9.11523
lfingers 7.12502
lthumb 12.6784 20.4799
rfemur -34.9212 -3.31964 31.1714
rtibia 32.9063
rfoot -7.77415 17.7383
rtoes 3.28169
lfemur 1.61347 -1.65331 -18.4973
ltibia 36.4471
lfoot 37.0867 -18.7579
ltoes 5.77864
264
root -6.51328 16.2125 7.73985 -172.194 -3.05195 -176.56
lowerback -3.85199 0.827709 4.5991
upperback -8.11561 0.354663 0.722096
thorax -6.25514 -0.41558 -1.78455
lowerneck 24.8093 -4.92697 -30.3841
upperneck -6.65287 -18.3123 40.5189
head 1.06518 -12.9565 21.5496
rclavicle -2.87617e-015 1.90336e-014
rhumerus -42.8156 -15.1766 -74.8743
rradius 22.3224
rwrist 28.8086
rhand -4.41907 -1.16619
rfingers 7.12502
rthumb 21.3515 -30.0099
lclavicle -2.87617e-015 1.90336e-014
lhumerus -43.5068 1.50227 87.4202
lradius 28.5458
lwrist 32.5912
lhand -13.0881 -8.5551
lfingers 7.12502
lthumb 13.0082 21.0193
rfemur -34.1156 -3.67008 31.4798
rtibia 32.8946
rfoot -8.29 17.8733
rtoes 3.64098
lfemur 0.125183 -1.50401 -17.9323
ltibia 38.8914
lfoot 37.0541 -19.7458
ltoes 5.77143
265
root -6.51719 16.2248 7.59586 -172.389 -3.26317 -176.277
lowerback -3.53008 0.804029 4.85854
upperback -8.05323 0.363919 0.799044
thorax -6.37306 -0.417413 -1.8504
lowerneck 24.8036 -4.99824 -30.3234
upperneck -6.72041 -18.4074 40.5845
head 1.0916 -13.015 21.5543
rclavicle -2.3233e-015 1.78906e-015
rhumerus -42.4863 -14.5353 -75.4213
rradius 22.6041
rwrist 28.3326
rhand -4.72203 -0.975633
rfingers 7.12502
rthumb 21.0605 -29.852
lclavicle -2.3233e-015 1.78906e-015
lhumerus -43.6336 1.0764 87.6429
lradius 28.4622
lwrist 32.6199
lhand -12.734 -7.99539
lfingers 7.12502
lthumb 13.3496 21.557
rfemur -33.3075 -4.05756 31.8061
rtibia 32.871
rfoot -8.81237 18.0027
rtoes 3.90511
lfemur -1.40209 -1.33718 -17.3587
ltibia 41.3864
lfoot 36.0827 -20.7031
ltoes 5.98209
266
root -6.52086 16.2339 7.45487 -172.595 -3.47757 -175.974
lowerback -3.19806 0.78476 5.1331
upperback -7.96934 0.384257 0.878043
thorax -6.47341 -0.412693 -1.92312
lowerneck 24.7986 -5.08098 -30.2535
upperneck -6.82384 -18.5061 40.6649
head 1.11153 -13.0762 21.5652
rclavicle -9.41121e-015 -1.31943e-014
rhumerus -42.1272 -13.8886 -75.9767
rradius 22.9082
rwrist 27.8246
rhand -5.07599 -0.848899
rfingers 7.12502
rthumb 20.7204 -29.7627
lclavicle -9.41121e-015 -1.31943e-014
lhumerus -43.717 0.513819 87.945
lradius 28.4338
lwrist 32.6118
lhand -12.3819 -7.49026
lfingers 7.12502
lthumb 13.6889 22.0395
rfemur -32.5065 -4.42877 32.1379
rtibia 32.8497
rfoot -9.34007 18.1052
rtoes 4.16957
lfemur -2.97205 -1.12043 -16.7812
ltibia 43.9147
lfoot 34.2054 -21.5747
ltoes 5.83248
267
root -6.52486 16.2395 7.31757 -172.807 -3.68364 -175.649
lowerback -2.84769 0.773701 5.43272
upperback -7.86624 0.421139 0.959156
thorax -6.56291 -0.399667 -2.00842
lowerneck 24.7846 -5.17893 -30.1722
upperneck -6.96333 -18.6075 40.7561
head 1.1256 -13.1381 21.5777
rclavicle 7.0289e-015 -1.93815e-015
rhumerus -41.7364 -13.2368 -76.5376
rradius 23.2401
rwrist 27.26
rhand -5.4614 -0.789978
rfingers 7.12502
rthumb 20.35 -29.7438
lclavicle 7.0289e-015 -1.93815e-015
lhumerus -43.7597 -0.170551 88.3225
lradius 28.4572
lwrist 32.5824
lhand -12.0612 -7.11938
lfingers 7.12502
lthumb 13.998 22.3893
rfemur -31.7276 -4.77377 32.4782
rtibia 32.8422
rfoot -9.86436 18.1863
rtoes 4.46255
lfemur -4.58841 -0.83251 -16.2018
ltibia 46.4453
lfoot 31.5277 -22.3572
ltoes 4.44365
